<svg version="1.1" id="Layer_1" xmlns="http://www.w3.org/2000/svg" xmlns:xlink="http://www.w3.org/1999/xlink" x="0px" y="0px"
	 width="100%" viewBox="0 0 544 448" enable-background="new 0 0 544 448" xml:space="preserve">
<path fill="#000000" opacity="1.000000" stroke="none" 
	d="
M336.963593,206.962341 
	C322.714935,219.011688 308.636078,230.715088 294.803833,242.703033 
	C289.273193,247.496262 283.905945,251.969620 275.926971,251.137024 
	C271.618286,250.687424 267.636169,249.362183 264.810455,246.142883 
	C244.504562,223.008636 224.301987,199.783493 204.126770,176.535019 
	C201.736969,173.781174 199.640823,170.761292 197.529633,167.779022 
	C191.568420,159.358231 191.974365,150.039932 198.704132,140.937424 
	C211.762146,123.275551 224.888367,105.673264 238.850830,88.696419 
	C245.815475,80.228188 254.875824,74.227631 262.856018,66.972466 
	C274.414154,56.464413 285.626587,45.543095 298.122955,36.078571 
	C304.082001,31.565296 308.428406,31.493551 314.036957,36.639339 
	C324.382507,46.131264 332.896820,57.272888 342.022705,67.854546 
	C354.301941,82.092567 366.405884,96.483200 378.459564,110.913162 
	C380.899811,113.834480 382.987762,117.106155 384.861023,120.428925 
	C386.655548,123.612122 386.871307,127.232391 385.330872,130.573059 
	C379.750092,142.675674 375.246094,155.208878 370.229584,167.536743 
	C364.915985,180.594788 355.903259,190.964371 345.291138,200.028336 
	C342.634674,202.297272 339.920197,204.498306 336.963593,206.962341 
M225.076859,131.599274 
	C219.776245,136.153107 214.470688,140.701187 209.176132,145.262039 
	C200.653732,152.603439 199.708282,159.290497 206.810745,168.123428 
	C213.998199,177.062057 221.772247,185.529022 229.289902,194.202118 
	C242.030563,208.900986 254.855881,223.527710 267.472260,238.332474 
	C272.709442,244.478104 276.327118,245.261917 283.356720,241.415039 
	C292.816772,236.238098 300.258789,228.536926 308.545929,221.884689 
	C321.134003,211.780060 332.411377,200.210144 344.728943,189.815811 
	C350.805206,184.688263 352.796478,177.532379 348.893372,172.832001 
	C346.238312,169.634644 343.437317,166.558838 340.719818,163.412903 
	C329.631775,150.576920 318.651306,137.646225 307.432678,124.925514 
	C299.649811,116.100586 292.753143,106.459747 283.172485,99.269333 
	C273.129395,91.731865 269.469299,91.930107 260.312500,100.332863 
	C248.918823,110.788261 237.218796,120.909782 225.076859,131.599274 
M369.669861,152.214798 
	C372.438782,145.091782 375.158295,137.949005 377.995758,130.853394 
	C379.612061,126.811478 379.421326,122.965912 376.798187,119.508392 
	C374.085999,115.933479 371.228516,112.449066 368.208862,109.130486 
	C354.995575,94.609283 342.635040,79.372086 330.191864,64.201248 
	C325.973083,59.057648 321.923157,53.709412 317.195465,49.066242 
	C311.389862,43.364445 306.352539,44.277740 302.026917,50.992588 
	C298.693420,56.167297 295.268219,61.284107 291.999542,66.499214 
	C283.316925,80.352158 283.888611,83.401848 293.663513,96.578705 
	C308.862762,117.067772 326.674561,135.319473 342.806854,155.002396 
	C346.133850,159.061646 349.143036,163.632782 353.924164,166.361328 
	C357.723053,168.529312 360.784729,168.669067 363.792816,164.571106 
	C366.445007,160.957947 367.517181,156.801178 369.669861,152.214798 
M253.654617,83.151970 
	C238.136627,95.313995 228.324265,112.134727 216.893188,127.657188 
	C220.568024,126.095543 223.695190,123.930878 226.581589,121.407120 
	C237.855103,111.549957 248.623749,101.022125 260.548737,92.027878 
	C274.154938,81.765610 282.805603,68.020149 291.186218,53.831066 
	C291.751892,52.873341 292.438690,51.815529 291.287018,50.324890 
	C278.890045,61.127453 266.530548,71.897339 253.654617,83.151970 
z"/>
<path fill="#000000" opacity="1.000000" stroke="none" 
	d="
M248.748795,258.323425 
	C256.366791,276.824036 263.882233,294.942108 272.682953,312.511200 
	C276.231964,319.596222 273.746887,328.522339 267.382538,334.241272 
	C262.516632,338.613708 256.748199,341.687744 251.289841,345.182526 
	C237.413071,354.067352 223.306152,362.594910 209.490891,371.572540 
	C202.808899,375.914764 196.592834,380.942841 189.344681,384.437988 
	C184.865997,386.597717 180.493057,386.991730 175.848145,385.245728 
	C159.501724,379.101227 143.209595,372.802002 126.760330,366.944977 
	C115.675964,362.998199 109.961372,354.660339 105.882423,344.321869 
	C99.105568,327.145264 91.893936,310.140656 85.017426,293.002655 
	C81.985405,285.446075 79.141228,277.801880 76.553879,270.082825 
	C74.366058,263.555725 76.624519,257.943451 81.309906,253.257202 
	C87.717094,246.848770 95.618958,242.378220 103.015465,237.339401 
	C121.712509,224.602127 141.000748,212.766327 160.534805,201.335434 
	C167.086670,197.501450 173.208237,196.708572 180.269012,200.474472 
	C196.127213,208.932556 212.238968,216.920074 228.324768,224.944260 
	C234.986618,228.267456 239.193024,233.291550 241.497818,240.388763 
	C243.445587,246.386581 246.179611,252.129044 248.748795,258.323425 
M145.766479,218.280258 
	C141.902298,220.876160 138.088791,223.551483 134.164917,226.053787 
	C119.439316,235.444412 104.621651,244.691864 89.955894,254.174545 
	C83.700844,258.218964 81.650261,265.699402 84.425224,272.627075 
	C92.461655,292.689911 100.245552,312.860596 108.705299,332.743561 
	C111.616425,339.585632 113.208611,347.051392 117.795845,353.192535 
	C121.737877,358.469971 127.664047,360.144928 133.611023,357.287964 
	C135.706955,356.281128 137.763077,355.182556 139.788635,354.039459 
	C155.177200,345.355225 168.963516,334.270020 183.744415,324.673370 
	C192.530960,318.968597 201.344238,313.300903 210.020767,307.432129 
	C217.473877,302.390900 218.684738,298.482727 215.793625,290.123688 
	C215.090973,288.092072 214.129044,286.149139 213.267014,284.173859 
	C203.490784,261.772278 193.778900,239.342224 183.903580,216.984375 
	C178.839981,205.520340 172.400330,203.606857 161.446808,209.155975 
	C156.231094,211.798309 151.446213,215.062592 145.766479,218.280258 
M229.044159,351.481476 
	C239.129379,344.732117 249.198120,337.957916 259.313232,331.253632 
	C261.422455,329.855682 262.794708,328.094727 262.671387,325.545013 
	C262.579437,323.644104 261.071777,322.848999 259.471283,322.116608 
	C249.794220,317.688507 240.117340,313.257416 230.506714,308.687805 
	C225.979065,306.535004 221.805359,306.958221 217.767761,309.702423 
	C213.087234,312.883667 208.401672,316.060059 203.788025,319.336731 
	C183.715057,333.592957 163.403305,347.490814 142.468979,360.462433 
	C140.985352,361.381744 138.944778,361.797211 138.812897,364.053467 
	C139.003021,364.405121 139.092407,364.866699 139.321228,364.951416 
	C151.768463,369.556580 164.188599,374.241119 176.715500,378.620148 
	C179.465851,379.581604 182.639526,379.859924 185.450333,378.150299 
	C199.800552,369.422028 214.142395,360.679993 229.044159,351.481476 
M198.380722,232.186661 
	C202.565582,241.609207 206.954529,250.947678 210.879669,260.477203 
	C215.057800,270.620911 220.441803,280.251068 223.677261,290.794464 
	C225.606857,297.082489 229.982925,301.248901 235.782547,304.002472 
	C243.595001,307.711731 251.452805,311.325378 259.286499,314.989990 
	C260.750305,315.674744 262.203033,317.101166 263.842285,315.702637 
	C265.696106,314.120972 264.435059,312.327423 263.744812,310.693237 
	C254.557205,288.941284 245.195145,267.261108 236.240952,245.413696 
	C233.693161,239.197327 229.860275,234.523331 224.061462,231.520370 
	C214.908813,226.780609 205.635895,222.271072 196.368637,217.757004 
	C195.110901,217.144348 193.724609,216.328323 192.066803,216.927887 
	C192.066803,217.420609 191.915665,217.952316 192.089920,218.336365 
	C194.082062,222.726990 196.123749,227.095123 198.380722,232.186661 
z"/>
<path fill="#000000" opacity="1.000000" stroke="none" 
	d="
M501.250000,285.309723 
	C501.803040,291.293976 499.016510,296.111481 497.595795,301.179169 
	C492.389954,319.748596 486.780640,338.205414 481.261780,356.686279 
	C479.679138,361.985962 477.779755,367.175415 472.917297,370.504425 
	C459.184265,379.906616 445.274689,389.060516 431.736206,398.734253 
	C420.202667,406.975372 408.463837,406.698914 395.834290,401.782684 
	C375.383606,393.822021 354.730560,386.382629 334.210297,378.598389 
	C326.399628,375.635468 323.101990,368.776917 325.282562,359.863861 
	C328.923218,344.982574 334.250488,330.600403 338.630737,315.936646 
	C341.533905,306.217804 344.324921,296.460419 346.904449,286.651459 
	C349.030243,278.567810 353.219940,272.803497 361.400208,269.640289 
	C375.663544,264.124878 389.673950,257.954712 403.785675,252.047791 
	C410.990814,249.031815 417.974396,251.285736 424.703613,253.462418 
	C434.181366,256.528168 443.470001,260.208557 452.742401,263.871918 
	C465.908295,269.073517 479.240936,273.754303 492.844635,277.673981 
	C496.693176,278.782867 500.803253,279.726685 501.250000,285.309723 
M400.201477,395.670685 
	C403.196930,395.733765 406.197876,395.943451 409.186829,395.832153 
	C417.785278,395.511932 421.490540,392.562408 423.893494,384.407928 
	C425.444794,379.143463 426.976868,373.872406 428.610291,368.633209 
	C434.051941,351.179016 439.642487,333.770355 444.950317,316.275818 
	C447.076874,309.266632 445.384064,306.040222 438.646362,303.291138 
	C433.271057,301.097931 427.755768,299.249084 422.312408,297.221100 
	C405.807739,291.072052 389.187531,285.209229 372.852417,278.638153 
	C363.479828,274.867859 358.715088,276.433228 355.700378,286.025726 
	C347.977142,310.600281 340.285492,335.184753 332.590271,359.768127 
	C330.837128,365.368896 331.744019,367.913177 336.747620,371.061646 
	C339.274048,372.651337 341.839874,374.133942 344.695526,375.185333 
	C362.943298,381.903839 381.145325,388.746674 400.201477,395.670685 
M447.640198,380.134827 
	C452.641663,376.574402 457.234222,372.251343 462.430145,369.224274 
	C470.127289,364.740051 473.347290,358.015015 475.620361,350.179260 
	C477.977539,342.053558 480.527771,333.983856 482.893036,325.860413 
	C486.046936,315.028259 489.091797,304.164307 492.214600,293.323029 
	C492.716003,291.582306 492.771667,290.041687 491.087341,288.899475 
	C489.584351,287.880219 488.236542,288.554199 486.892670,289.282440 
	C478.417542,293.875214 469.894897,298.383240 461.487885,303.097534 
	C457.614746,305.269379 454.734009,308.493500 453.400909,312.856506 
	C446.273102,336.184662 439.165619,359.519043 432.042999,382.848755 
	C431.606506,384.278534 430.836121,385.785522 432.279907,386.998260 
	C433.761871,388.243164 435.476593,387.851440 436.943726,386.961884 
	C440.353638,384.894318 443.680237,382.689331 447.640198,380.134827 
M478.537567,286.136505 
	C479.762390,285.123291 481.573486,284.519745 481.109650,281.817719 
	C479.207367,280.844940 477.113190,279.463867 474.817993,278.649170 
	C455.718658,271.869812 436.569366,265.231201 417.468353,258.456543 
	C413.834595,257.167755 410.334656,256.986633 406.778259,258.454224 
	C398.171112,262.006134 389.565369,265.561554 380.974823,269.153412 
	C379.480835,269.778107 377.760437,270.299652 377.787415,272.460480 
	C378.675110,274.131958 380.388641,274.425446 381.923187,274.997925 
	C402.004608,282.489288 422.077240,290.004395 442.176178,297.448517 
	C447.875183,299.559296 453.582642,299.630829 459.086456,296.700256 
	C465.394440,293.341583 471.674255,289.929901 478.537567,286.136505 
z"/>
<path fill="#000000" opacity="1.000000" stroke="none" 
	d="
M171.817719,119.569168 
	C168.006531,122.799080 165.878906,122.074898 164.823807,117.594849 
	C163.566711,112.256981 163.941818,106.736847 162.393845,101.348946 
	C160.209915,93.747475 155.938416,88.404305 148.872894,85.110855 
	C147.819458,84.619820 146.850662,83.950432 145.817657,83.411598 
	C144.446152,82.696190 143.128677,81.881264 143.093399,80.151505 
	C143.055801,78.307915 144.587250,77.396698 145.948486,77.079750 
	C157.379303,74.418221 161.625381,65.202400 165.875748,55.816326 
	C167.606888,51.993481 167.250061,48.005913 167.745804,44.077168 
	C168.044296,41.711765 168.388748,38.906750 171.272629,38.829144 
	C174.231018,38.749535 174.590759,41.782742 175.032333,43.962749 
	C176.285797,50.150627 177.320236,56.376453 179.086166,62.458164 
	C181.084381,69.339828 185.201294,74.146820 192.073013,76.474075 
	C194.008316,77.129501 195.961304,78.008972 196.251419,80.288971 
	C196.513916,82.351707 194.615814,83.181793 193.175598,83.773499 
	C180.087006,89.150787 175.960281,100.379700 173.781769,112.979950 
	C173.415466,115.098541 172.597778,117.139091 171.817719,119.569168 
M172.594849,64.332970 
	C172.289429,63.426014 171.984024,62.519062 171.443390,60.913616 
	C167.289948,68.637352 163.455597,75.785652 156.372772,81.006287 
	C162.214722,86.100716 167.443787,91.075340 168.854355,99.491119 
	C173.519836,92.143410 176.038101,84.811241 183.540176,81.040993 
	C178.325745,76.223213 174.588409,71.220200 172.594849,64.332970 
z"/>
<path fill="#000000" opacity="1.000000" stroke="none" 
	d="
M118.045227,145.920135 
	C120.844681,150.551147 124.218239,154.151627 128.200592,157.253845 
	C131.180389,159.575104 132.302979,161.559738 127.987671,164.294678 
	C119.840454,169.458191 115.676506,177.519470 113.615334,186.772873 
	C113.164749,188.795746 113.287514,191.515869 110.334816,191.622452 
	C107.444672,191.726761 106.556694,189.368225 105.896263,187.035919 
	C103.115005,177.213760 98.364204,169.115891 88.248528,165.007187 
	C84.430817,163.456543 84.679779,161.465149 88.100464,159.286575 
	C97.906097,153.041565 105.161964,145.044754 105.913223,132.708298 
	C105.943382,132.213028 106.002815,131.703766 106.152687,131.234253 
	C106.868950,128.990463 106.553406,125.590668 110.038940,125.827904 
	C113.388954,126.055901 113.157234,129.116180 113.260803,131.622223 
	C113.471291,136.715210 114.959625,141.397217 118.045227,145.920135 
M104.409370,154.860703 
	C102.514236,157.337509 100.619110,159.814316 98.498642,162.585617 
	C102.680901,166.470871 106.706985,170.499329 110.294304,175.557083 
	C113.870132,170.133911 116.248680,164.716888 121.846992,161.293228 
	C117.668594,156.394409 113.708000,151.861710 110.723785,145.915176 
	C108.397774,149.192932 106.601562,151.724106 104.409370,154.860703 
z"/>
<path fill="#000000" opacity="1.000000" stroke="none" 
	d="
M410.012909,226.715363 
	C407.987915,231.243637 405.941132,230.541656 404.056305,227.123367 
	C403.016327,225.237366 402.177582,223.220581 401.434509,221.194397 
	C399.021637,214.614853 394.950989,209.649582 388.264771,207.039185 
	C386.423004,206.320129 384.245483,205.552933 384.211975,203.143539 
	C384.177032,200.634567 386.505829,200.040512 388.312408,199.375443 
	C396.189545,196.475464 399.902283,190.319199 401.722351,182.617065 
	C401.951538,181.647141 402.006866,180.620972 402.346497,179.695633 
	C402.965027,178.010376 403.377258,175.816254 405.653595,175.823990 
	C408.132507,175.832413 408.812683,177.997055 409.242737,179.979340 
	C411.066345,188.385025 415.398499,194.887039 422.971527,199.271423 
	C427.272675,201.761536 427.144409,203.235535 423.242340,205.977158 
	C416.124725,210.978119 411.528809,217.644867 410.012909,226.715363 
M403.807312,195.357040 
	C402.468719,198.834656 398.931519,200.552780 396.680573,203.840347 
	C401.167816,206.407227 403.149933,210.918045 406.065552,214.749741 
	C410.440460,211.668213 411.476593,206.661652 415.728760,203.464478 
	C411.780487,199.934799 408.907654,195.996078 406.380646,191.896942 
	C404.758881,192.496490 404.734039,193.830963 403.807312,195.357040 
z"/>
<path fill="#000000" opacity="1.000000" stroke="none" 
	d="
M302.270630,291.995544 
	C303.942993,289.650146 303.559357,287.241699 303.897522,284.969513 
	C304.150482,283.269958 304.924652,281.672577 306.729187,281.215546 
	C308.772400,280.698059 309.730011,282.274963 310.457977,283.795013 
	C312.976624,289.054108 315.701477,294.065948 320.758148,297.495392 
	C323.024780,299.032593 322.664093,301.654846 320.590210,302.966034 
	C315.537994,306.160278 313.966980,311.006714 313.237457,316.419586 
	C312.979736,318.331573 312.476105,320.202789 310.296478,320.491241 
	C308.135498,320.777191 306.916351,319.135223 306.322205,317.360779 
	C304.506287,311.937256 301.299622,307.858582 296.301941,304.874298 
	C293.122253,302.975555 292.940643,300.197479 296.155457,297.632080 
	C298.221588,295.983337 300.090637,294.087646 302.270630,291.995544 
M306.955505,304.318054 
	C310.829620,306.783722 310.993347,302.487915 311.920197,301.060852 
	C313.884613,298.036285 310.524048,296.741180 308.740967,294.148224 
	C307.205841,297.059143 304.514130,298.304718 303.505737,301.268585 
	C304.545563,302.202606 305.499878,303.059784 306.955505,304.318054 
z"/>
<path fill="#000000" opacity="1.000000" stroke="none" 
	d="
M486.663147,397.234558 
	C484.459106,394.949188 483.209625,392.595886 484.264465,389.785370 
	C485.669373,386.042084 488.601074,384.293854 492.512970,384.937225 
	C496.328430,385.564758 497.505524,388.674347 497.501343,391.996521 
	C497.496429,395.925598 494.966827,397.897919 491.223114,398.458191 
	C489.666107,398.691223 488.264374,398.311035 486.663147,397.234558 
z"/>
<path fill="#000000" opacity="1.000000" stroke="none" 
	d="
M98.675873,45.869858 
	C95.409515,43.202538 93.421776,40.250355 96.227356,36.709549 
	C98.393814,33.975338 101.229256,31.394224 105.201897,33.365341 
	C107.928970,34.718433 109.528267,37.009808 108.444534,40.321827 
	C106.947876,44.895771 104.135628,47.341019 98.675873,45.869858 
z"/>
<path fill="#000000" opacity="1.000000" stroke="none" 
	d="
M162.818665,172.928787 
	C162.911057,169.506775 163.617035,166.748886 167.011932,166.070969 
	C170.590225,165.356461 173.533325,166.914566 175.691376,169.677322 
	C177.971756,172.596680 176.458694,174.923264 174.041122,176.869522 
	C171.290359,179.083954 166.050644,178.948395 164.085190,176.505692 
	C163.407349,175.663269 163.233719,174.415115 162.818665,172.928787 
z"/>
<path fill="#000000" opacity="1.000000" stroke="none" 
	d="
M347.872681,241.729523 
	C349.046753,241.422379 349.872498,241.080048 350.666412,241.142456 
	C354.144928,241.415863 357.390106,242.294785 358.072937,246.370010 
	C358.496887,248.900269 358.250275,251.670303 355.383240,252.661545 
	C351.872833,253.875244 348.332733,253.543686 346.057556,250.146820 
	C344.024139,247.110901 344.457855,244.185394 347.872681,241.729523 
z"/>
<path fill="#000000" opacity="1.000000" stroke="none" 
	d="
M87.812538,198.602692 
	C91.412231,201.187180 92.331650,205.585129 89.943367,207.856689 
	C87.777611,209.916611 85.382195,209.595901 83.329422,207.641556 
	C79.904243,204.380600 81.881683,200.076309 87.812538,198.602692 
z"/>
<path fill="#000000" opacity="1.000000" stroke="none" 
	d="
M436.108704,237.006073 
	C439.638916,237.437378 441.261810,239.379028 440.897278,242.425674 
	C440.622284,244.723740 438.904907,246.335663 436.522247,246.492477 
	C434.289185,246.639420 432.705261,245.158279 432.149261,243.130585 
	C431.309326,240.067276 432.819427,238.073761 436.108704,237.006073 
z"/>
<path fill="#000000" opacity="1.000000" stroke="none" 
	d="
M96.346603,104.799576 
	C94.066933,103.284462 93.424141,101.572235 94.930580,99.562096 
	C95.876411,98.300003 97.234016,97.608475 98.877769,98.138184 
	C100.293182,98.594322 101.171265,99.655273 101.018089,101.134857 
	C100.759758,103.630180 99.330025,105.013351 96.346603,104.799576 
z"/>
<path fill="#000000" opacity="1.000000" stroke="none" 
	d="
M300.716064,147.375717 
	C304.010345,151.333054 305.007141,155.995331 306.897644,160.225616 
	C308.191711,163.121170 309.534271,165.270981 313.396118,165.192841 
	C316.962769,165.120682 319.021118,168.211853 319.879700,171.175201 
	C320.704559,174.022141 317.615662,174.912674 315.640839,175.910629 
	C307.612244,179.967896 298.633942,180.286728 290.044830,182.091003 
	C278.731323,184.467606 268.432556,188.775696 260.069031,196.915726 
	C256.528717,200.361389 253.955505,199.910538 251.138367,196.113632 
	C248.867874,193.053467 246.249710,190.235489 243.636856,187.449768 
	C241.225113,184.878479 241.689972,182.773483 244.252335,180.749023 
	C254.170670,172.912842 265.115143,168.038803 278.086182,168.622147 
	C283.168182,168.850693 288.269104,168.659561 294.598572,168.659561 
	C289.161957,164.085999 286.552277,158.693283 283.085938,153.912033 
	C278.954041,148.212769 273.585846,147.824753 268.847015,152.993683 
	C266.090057,156.000885 263.928772,157.132965 260.804108,153.496841 
	C257.237091,149.346008 257.179779,148.081116 261.123932,144.474289 
	C266.155029,139.873489 271.074585,135.150864 276.094452,130.537552 
	C277.894836,128.882980 279.450317,125.385551 282.506317,128.227325 
	C285.277618,130.804352 290.532898,132.863831 285.899963,138.397385 
	C291.691711,140.277954 297.003571,142.225784 300.716064,147.375717 
z"/>
<path fill="#000000" opacity="1.000000" stroke="none" 
	d="
M340.632172,107.453049 
	C341.601929,110.203094 342.432892,112.783813 339.674194,114.418732 
	C337.194733,115.888161 334.948212,114.702614 332.869934,113.076553 
	C329.561646,110.488091 326.819000,107.473663 325.132263,103.575043 
	C324.389343,101.857910 323.655029,100.119995 325.362640,98.576317 
	C327.130219,96.978477 328.996643,96.689224 331.240326,97.925507 
	C335.230072,100.123894 338.871063,102.568810 340.632172,107.453049 
z"/>
<path fill="#000000" opacity="1.000000" stroke="none" 
	d="
M319.917053,65.034439 
	C323.213531,67.787239 325.247650,70.957184 326.134430,74.763809 
	C326.552490,76.558304 326.456604,78.471016 324.678925,79.680161 
	C322.913483,80.880951 321.213715,80.314095 319.606354,79.237045 
	C315.639252,76.578812 313.067352,72.737823 310.936951,68.615311 
	C309.767517,66.352394 309.155121,63.716339 311.495789,61.792336 
	C313.672272,60.003265 315.498169,61.976273 317.299866,62.982716 
	C318.154114,63.459892 318.877533,64.171227 319.917053,65.034439 
z"/>
<path fill="#000000" opacity="1.000000" stroke="none" 
	d="
M295.938629,91.916489 
	C294.326843,89.031181 291.882660,85.898537 294.714996,83.593796 
	C297.715790,81.151993 301.085999,83.561180 303.594910,85.691399 
	C306.645477,88.281525 308.945190,91.575172 310.025269,95.522423 
	C310.464996,97.129539 310.587646,98.846344 309.217407,100.172249 
	C307.738251,101.603577 306.162659,100.797081 304.588165,100.280998 
	C300.479095,98.934158 298.457489,95.431206 295.938629,91.916489 
z"/>
<path fill="#000000" opacity="1.000000" stroke="none" 
	d="
M354.784637,140.478790 
	C356.231293,144.067444 359.249878,147.851913 354.818481,150.433853 
	C350.977112,152.671997 348.530762,148.735031 346.136780,146.462784 
	C344.106659,144.535904 342.697784,142.000244 341.845398,139.269897 
	C341.191681,137.176025 341.661957,135.318649 343.438690,133.932800 
	C345.241699,132.526428 346.843658,133.375381 348.425110,134.451706 
	C350.767517,136.045929 352.968475,137.784180 354.784637,140.478790 
z"/>
<path fill="#000000" opacity="1.000000" stroke="none" 
	d="
M371.036804,120.461395 
	C371.207458,123.011894 371.636108,125.486328 369.132690,126.481003 
	C366.840759,127.391640 364.893402,125.821579 363.400085,124.333221 
	C360.502136,121.444893 357.087524,118.771248 356.727112,114.215073 
	C356.402496,110.111496 358.576996,108.522766 362.205444,110.389519 
	C366.276367,112.483917 369.604462,115.426071 371.036804,120.461395 
z"/>
<path fill="#000000" opacity="1.000000" stroke="none" 
	d="
M117.596306,287.339905 
	C114.869713,282.348755 112.305885,277.688019 109.792633,273.000183 
	C108.758018,271.070374 106.374092,268.916138 109.339996,267.002686 
	C112.050430,265.254028 114.737259,261.867371 118.603043,265.100708 
	C119.071823,265.492767 119.636810,265.769806 120.456421,266.290100 
	C123.876488,255.677795 132.268997,252.338409 141.888840,250.718445 
	C146.537659,249.935623 151.540710,250.071884 152.797791,243.531982 
	C153.201569,241.431274 155.984085,239.437027 158.692352,239.626526 
	C161.855820,239.847885 162.464264,242.908173 162.750732,245.204407 
	C163.344620,249.964523 163.543777,254.806900 163.479401,259.609741 
	C163.312347,272.070129 162.197296,284.600281 167.161484,296.536957 
	C168.500046,299.755646 169.819214,302.986115 171.288879,306.145325 
	C172.520630,308.793152 171.764267,310.591736 169.330673,311.940277 
	C166.421341,313.552460 163.523880,315.186768 160.640671,316.845184 
	C153.994400,320.668091 153.955231,320.697052 150.584381,313.538544 
	C145.418335,302.567688 144.197571,291.338257 147.990555,279.599731 
	C149.581268,274.676727 151.538925,269.729736 151.670990,263.287689 
	C146.161743,267.349579 140.743134,269.327209 135.417847,271.554321 
	C128.079010,274.623566 126.995361,277.856171 130.004929,285.367523 
	C131.137314,288.193817 133.266891,291.017273 128.981674,293.447113 
	C123.610016,296.493073 123.095901,296.524658 119.858887,291.068604 
	C119.179726,289.923889 118.473297,288.795380 117.596306,287.339905 
z"/>
<path fill="#000000" opacity="1.000000" stroke="none" 
	d="
M230.154205,332.253113 
	C236.094040,334.425476 236.612061,336.955811 232.704208,341.320801 
	C229.541977,344.852966 225.440033,346.551514 221.100937,347.743195 
	C217.297165,348.787842 215.554413,346.563812 216.677399,342.668762 
	C218.585876,336.049164 224.586929,334.704590 230.154205,332.253113 
z"/>
<path fill="#000000" opacity="1.000000" stroke="none" 
	d="
M194.640442,345.287079 
	C194.012878,351.153625 184.418777,358.462769 179.153625,357.610657 
	C177.679062,357.372009 176.455627,356.726807 176.503708,355.164764 
	C176.657776,350.161194 179.575089,346.879028 183.711044,344.585022 
	C187.306366,342.590851 191.008621,340.973969 194.640442,345.287079 
z"/>
<path fill="#000000" opacity="1.000000" stroke="none" 
	d="
M231.877686,263.368225 
	C232.573868,265.103851 233.159760,266.482056 233.587708,267.907654 
	C234.405579,270.632141 233.628433,272.958588 231.171295,274.329987 
	C228.684845,275.717804 227.194992,273.701080 225.710846,272.147675 
	C223.496048,269.829498 221.920624,267.145782 220.958496,264.061554 
	C220.121475,261.378387 220.319260,259.133728 222.977142,257.611633 
	C225.623642,256.096039 227.415070,257.709290 229.044189,259.434601 
	C230.059448,260.509796 230.820786,261.824799 231.877686,263.368225 
z"/>
<path fill="#000000" opacity="1.000000" stroke="none" 
	d="
M422.214996,323.314514 
	C419.451752,328.478180 415.334625,331.802551 410.842651,334.751099 
	C399.563019,342.155182 389.447601,350.620056 384.222229,363.624084 
	C382.917572,366.871063 380.729736,367.647095 377.452911,365.992249 
	C374.492767,364.497345 371.323669,363.405426 368.215454,362.217529 
	C364.958527,360.972778 364.615326,359.187531 366.108368,356.018402 
	C372.044159,343.419067 382.171021,336.015259 395.006104,331.666504 
	C396.966858,331.002106 399.138916,330.509674 401.011749,328.438385 
	C395.652740,326.376984 391.056488,323.422302 386.196899,320.998230 
	C381.419647,318.615204 377.818237,320.060730 375.421600,325.612091 
	C373.732941,329.523590 371.811279,330.069946 368.132233,328.449982 
	C363.951263,326.609009 364.539825,324.049652 366.026550,320.774872 
	C368.225586,315.930969 370.118042,310.948669 372.262421,306.078796 
	C373.203979,303.940613 373.345856,300.904266 376.917297,301.171051 
	C380.407104,301.431763 382.964172,303.880432 383.761078,308.082367 
	C393.568207,304.966980 400.561127,309.903320 407.088654,316.337646 
	C409.218811,318.437439 411.417542,320.030029 415.004761,318.311676 
	C418.367249,316.700989 421.461761,319.053558 422.214996,323.314514 
z"/>
<path fill="#000000" opacity="1.000000" stroke="none" 
	d="
M450.057007,366.013367 
	C445.362701,368.108765 443.193604,366.783386 443.905762,362.390137 
	C444.633087,357.903259 446.653931,353.849854 449.250702,350.142334 
	C450.216064,348.764008 451.670074,347.643707 453.522827,348.275269 
	C455.253784,348.865387 455.236053,350.521912 455.281921,352.049286 
	C455.439087,357.279205 453.821716,361.861450 450.057007,366.013367 
z"/>
<path fill="#000000" opacity="1.000000" stroke="none" 
	d="
M466.150726,316.884583 
	C465.673096,321.434235 463.395935,324.733490 461.141296,328.038086 
	C460.093872,329.573303 458.753876,330.341370 456.878448,329.478363 
	C455.085541,328.653320 454.548798,327.172424 454.863312,325.359558 
	C455.523834,321.553040 456.998444,318.006042 458.708527,314.585114 
	C459.668060,312.665558 460.988190,310.401825 463.473877,310.813904 
	C466.569092,311.327087 466.055328,314.191376 466.150726,316.884583 
z"/>
<path fill="#000000" opacity="1.000000" stroke="none" 
	d="
M464.440674,348.473389 
	C465.328644,345.908997 466.034515,343.694458 466.899017,341.543671 
	C467.550568,339.922729 468.601105,338.544006 470.631195,338.928711 
	C472.725800,339.325653 473.729523,340.904846 473.845428,342.875458 
	C474.100311,347.209808 472.540375,351.058319 470.106995,354.528107 
	C468.924133,356.214783 467.286499,357.602844 465.019318,356.339935 
	C462.945160,355.184509 462.562958,353.344513 463.450439,351.190582 
	C463.767548,350.420868 464.036102,349.631195 464.440674,348.473389 
z"/>
<path fill="#000000" opacity="1.000000" stroke="none" 
	d="
M475.751862,317.682465 
	C473.637482,311.701904 476.417847,307.106262 479.192566,302.583923 
	C479.990448,301.283569 481.518555,300.658142 483.150024,301.201141 
	C484.872375,301.774414 485.188965,303.232330 485.156097,304.814423 
	C485.062836,309.300690 483.157715,313.174805 480.837433,316.836792 
	C479.728943,318.586243 477.947296,318.956573 475.751862,317.682465 
z"/>
<path fill="#000000" opacity="1.000000" stroke="none" 
	d="
M395.053589,274.735413 
	C396.844421,269.245331 400.730469,271.042725 404.160187,271.750977 
	C407.936066,272.530731 411.084900,274.398682 412.068481,278.417114 
	C412.481934,280.106262 411.201752,281.370270 409.460083,281.348480 
	C403.838593,281.278076 398.547729,280.282684 395.053589,274.735413 
z"/>
<path fill="#000000" opacity="1.000000" stroke="none" 
	d="
M422.909607,273.779785 
	C427.927155,272.486664 431.719360,274.353699 435.173645,277.158264 
	C436.517822,278.249603 437.359344,279.749054 436.449066,281.540924 
	C435.658813,283.096497 434.137665,283.414825 432.602020,283.164825 
	C429.146179,282.602356 425.764008,281.673737 422.950500,279.491608 
	C420.889099,277.892914 419.701904,275.982727 422.909607,273.779785 
z"/>
<path fill="#000000" opacity="1.000000" stroke="none" 
	d="
M457.379181,277.375183 
	C460.315826,278.972351 464.987762,279.543365 463.446960,283.482513 
	C462.086426,286.960754 458.025726,285.242676 455.018494,284.512695 
	C454.858246,284.473785 454.700867,284.418152 454.547455,284.356964 
	C451.486023,283.135956 447.118622,281.887695 448.482361,277.988525 
	C449.972290,273.728485 453.990875,276.205750 457.379181,277.375183 
z"/>
</svg>